name rise49.25peak52.1432fall72.8391.mot
datacolumns 19
datarows 12
range 5.47664600000000 5.49500200000000
endheader
time	ground_force1_vx	ground_force1_vy	ground_force1_vz	ground_force1_px	ground_force1_py	ground_force1_pz	ground_force2_vx	ground_force2_vy	ground_force2_vz	ground_force2_px	ground_force2_py	ground_force2_pz	ground_torque1_x	ground_torque1_y	ground_torque1_z	ground_torque2_x	ground_torque2_y	ground_torque2_z	
5.47664600000000	17.12987500000000	713.13261499999999	42.51638400000000	0.24560400000000	0.00000000000000	0.10685300000000	0.00000000000000	0.00000000000000	0.00000000000000	0.00000000000000	0.00000000000000	0.00000000000000	0.00000000000000	17.56312900000000	0.00000000000000	0.00000000000000	0.00000000000000	0.00000000000000	
5.47831600000000	16.88198000000000	714.12144599999999	42.55446000000000	0.24513600000000	0.00000000000000	0.10683800000000	0.00000000000000	0.00000000000000	0.00000000000000	0.00000000000000	0.00000000000000	0.00000000000000	0.00000000000000	17.60314600000000	0.00000000000000	0.00000000000000	0.00000000000000	0.00000000000000	
5.47998500000000	16.62295100000000	715.12387500000000	42.59723500000000	0.24463600000000	0.00000000000000	0.10682500000000	0.00000000000000	0.00000000000000	0.00000000000000	0.00000000000000	0.00000000000000	0.00000000000000	0.00000000000000	17.64574300000000	0.00000000000000	0.00000000000000	0.00000000000000	0.00000000000000	
5.48164100000000	16.35243000000000	716.13773200000003	42.64433400000000	0.24410200000000	0.00000000000000	0.10681300000000	0.00000000000000	0.00000000000000	0.00000000000000	0.00000000000000	0.00000000000000	0.00000000000000	0.00000000000000	17.69074400000000	0.00000000000000	0.00000000000000	0.00000000000000	0.00000000000000	
5.48331100000000	16.07010700000000	717.16093100000001	42.69538500000000	0.24353400000000	0.00000000000000	0.10680200000000	0.00000000000000	0.00000000000000	0.00000000000000	0.00000000000000	0.00000000000000	0.00000000000000	0.00000000000000	17.73797500000000	0.00000000000000	0.00000000000000	0.00000000000000	0.00000000000000	
5.48500200000000	15.77572400000000	718.19147599999997	42.75001800000000	0.24293000000000	0.00000000000000	0.10679200000000	0.00000000000000	0.00000000000000	0.00000000000000	0.00000000000000	0.00000000000000	0.00000000000000	0.00000000000000	17.78726800000000	0.00000000000000	0.00000000000000	0.00000000000000	0.00000000000000	
5.48664600000000	15.46907500000000	719.22746400000005	42.80786700000000	0.24229100000000	0.00000000000000	0.10678400000000	0.00000000000000	0.00000000000000	0.00000000000000	0.00000000000000	0.00000000000000	0.00000000000000	0.00000000000000	17.83845500000000	0.00000000000000	0.00000000000000	0.00000000000000	0.00000000000000	
5.48831500000000	15.15000400000000	720.26708799999994	42.86857400000000	0.24161500000000	0.00000000000000	0.10677700000000	0.00000000000000	0.00000000000000	0.00000000000000	0.00000000000000	0.00000000000000	0.00000000000000	0.00000000000000	17.89137600000000	0.00000000000000	0.00000000000000	0.00000000000000	0.00000000000000	
5.49000000000000	14.81840900000000	721.30863699999998	42.93178600000000	0.24090200000000	0.00000000000000	0.10677100000000	0.00000000000000	0.00000000000000	0.00000000000000	0.00000000000000	0.00000000000000	0.00000000000000	0.00000000000000	17.94587400000000	0.00000000000000	0.00000000000000	0.00000000000000	0.00000000000000	
5.49164800000000	14.47424100000000	722.35050400000000	42.99715800000000	0.24015200000000	0.00000000000000	0.10676600000000	0.00000000000000	0.00000000000000	0.00000000000000	0.00000000000000	0.00000000000000	0.00000000000000	0.00000000000000	18.00179900000000	0.00000000000000	0.00000000000000	0.00000000000000	0.00000000000000	
5.49331400000000	14.11750200000000	723.39118299999996	43.06435700000000	0.23936600000000	0.00000000000000	0.10676300000000	0.00000000000000	0.00000000000000	0.00000000000000	0.00000000000000	0.00000000000000	0.00000000000000	0.00000000000000	18.05900500000000	0.00000000000000	0.00000000000000	0.00000000000000	0.00000000000000	
5.49500200000000	13.74824600000000	724.42927199999997	43.13305700000000	0.23854400000000	0.00000000000000	0.10676000000000	0.00000000000000	0.00000000000000	0.00000000000000	0.00000000000000	0.00000000000000	0.00000000000000	0.00000000000000	18.11735200000000	0.00000000000000	0.00000000000000	0.00000000000000	0.00000000000000	
